<svg height='100px' width='100px'  fill="#49ac7f" xmlns="http://www.w3.org/2000/svg" xmlns:xlink="http://www.w3.org/1999/xlink" viewBox="0 0 60 54" version="1.1" x="0px" y="0px"><title>012 - Healthy</title><desc>Created with Sketch.</desc><g stroke="none" stroke-width="1" fill="none" fill-rule="evenodd"><g fill="#49ac7f" fill-rule="nonzero"><path d="M45.615,0.161 L45.52,0.161 C41.5188825,0.205908539 37.7160759,1.91029026 35.02,4.867 L30,10.35 L24.778,4.65 C22.1632461,1.7169467 18.4292465,0.0276006787 14.5,3.55271368e-15 C10.5686584,0.0259079341 6.83215201,1.71540178 4.216,4.65 C-1.38702039,10.9821555 -1.38702039,20.4988445 4.216,26.831 L28.521,53.35 C28.9009252,53.7640154 29.4370819,53.9996991 29.999,53.9996991 C30.5609181,53.9996991 31.0970748,53.7640154 31.477,53.35 L55.783,26.83 C58.5267518,23.7895932 60.0313701,19.8312733 60,15.736 C60.0363637,11.5715949 58.477375,7.55121462 55.643,4.5 C53.0514031,1.71891283 49.4163942,0.146086395 45.615,0.161 Z M54.308,25.479 L30,52 L5.69,25.479 C0.770729001,19.9177429 0.770729001,11.5612571 5.69,6 C7.92975545,3.48199855 11.1301337,2.02893236 14.5,2 C17.866538,2.03099828 21.0630311,3.48394971 23.3,6 L28.521,11.7 C28.9111131,12.0955084 29.4434686,12.3181619 29.999,12.3181619 C30.5545314,12.3181619 31.0868869,12.0955084 31.477,11.7 L36.5,6.22 C38.8185169,3.67396079 42.08974,2.20439107 45.533,2.162 L45.615,2.162 C48.8639424,2.14934041 51.9707058,3.49339347 54.186,5.87 C56.6716052,8.55030943 58.0363975,12.0807343 58,15.736 C58.030618,19.3310166 56.713401,22.8070853 54.308,25.479 Z"></path><path d="M39,25 L33,25 L33,19 C33,17.8954305 32.1045695,17 31,17 L29,17 C27.8954305,17 27,17.8954305 27,19 L27,25 L21,25 C19.8954305,25 19,25.8954305 19,27 L19,29 C19,30.1045695 19.8954305,31 21,31 L27,31 L27,37 C27,38.1045695 27.8954305,39 29,39 L31,39 C32.1045695,39 33,38.1045695 33,37 L33,31 L39,31 C40.1045695,31 41,30.1045695 41,29 L41,27 C41,25.8954305 40.1045695,25 39,25 Z M39,29 L33,29 C31.8954305,29 31,29.8954305 31,31 L31,37 L29,37 L29,31 C29,29.8954305 28.1045695,29 27,29 L21,29 L21,27 L27,27 C28.1045695,27 29,26.1045695 29,25 L29,19 L31,19 L31,25 C31,26.1045695 31.8954305,27 33,27 L39,27 L39,29 Z"></path><path d="M14.51,4 C14.317,4 14.127,4.007 13.937,4.019 C13.5797344,4.03007523 13.255516,4.23090809 13.0864746,4.54584679 C12.9174332,4.86078548 12.9292504,5.24198333 13.1174746,5.54584679 C13.3056988,5.84971025 13.6417344,6.03007523 13.999,6.019 L14.063,6.019 C14.211,6.00633333 14.36,6 14.51,6 C15.0622847,6 15.51,5.55228475 15.51,5 C15.51,4.44771525 15.0622847,4 14.51,4 Z"></path><path d="M8.64,22.783 C5.08377691,18.7640826 5.08377691,12.7239174 8.64,8.705 C9.19069499,8.09931497 9.82390712,7.57416297 10.521,7.145 C10.8297696,6.96066262 11.0157852,6.62473141 11.0081714,6.26520261 C11.0005576,5.90567382 10.8004869,5.57791885 10.4841901,5.40681866 C10.1678933,5.23571847 9.78408367,5.24762437 9.479,5.438 C8.62179363,5.96521655 7.84285697,6.6101788 7.165,7.354 C2.92711916,12.1449895 2.92711916,19.3440105 7.165,24.135 L9.493,26.676 C9.73451154,26.9394834 10.0982441,27.0541072 10.4471832,26.9766937 C10.7961222,26.8992803 11.0772556,26.6415905 11.1846832,26.3006937 C11.2921107,25.9597969 11.2095115,25.5874834 10.968,25.324 L8.64,22.783 Z"></path></g></g></svg>
