<svg height='100px' width='100px'  fill="#49ac7f" xmlns="http://www.w3.org/2000/svg" viewBox="0 0 64 64" x="0px" y="0px"><title>a</title><g data-name="04 Recycle"><path d="M17.863,23.644a2.986,2.986,0,0,0,4.08-1.095l.925-1.6a.981.981,0,0,1,1.344-.361,2.991,2.991,0,0,0,4.074-1.093l3.73-6.455c1.887,3.266,2.954,5.12,3.5,6.07l-.95.552a1.492,1.492,0,0,0,.365,2.73l8.3,2.224a1.464,1.464,0,0,0,.386.052,1.5,1.5,0,0,0,1.447-1.111l2.225-8.3h0A1.492,1.492,0,0,0,45.1,13.579l-.946.545c-1.184-2.052-4.063-7.042-4.125-7.143l-.024-.039h0a3.9,3.9,0,0,0-3.329-1.885h-9.2c-.021,0-.038.011-.059.012A4.061,4.061,0,0,0,23.938,7.1L16.746,19.551A3,3,0,0,0,17.863,23.644Zm27.492-8.9h0v0ZM32.078,7.056a1.882,1.882,0,0,1,1.613.915l2.66,4.607a1,1,0,1,0,1.732-1l-2.61-4.522h1.2a1.887,1.887,0,0,1,1.619.923q.015.026.03.048c.243.416,4.333,7.5,4.6,7.961a1,1,0,0,0,1.365.367l.75-.431L43.261,22.55l-6.632-1.777.749-.436A1,1,0,0,0,37.758,19c-.093-.171-1.425-2.492-4.876-8.463L30.9,7.111l0-.008-.027-.047Zm-13.6,13.5L25.673,8.1a2.059,2.059,0,0,1,1.8-1.041h0a1.776,1.776,0,0,1,.318.043,1.678,1.678,0,0,1,.24.05c.037.012.071.031.108.045a2.158,2.158,0,0,1,1.03.914l1.417,2.455.273.474L26.554,18.49a.986.986,0,0,1-1.343.361,2.982,2.982,0,0,0-4.076,1.1l-.924,1.6a.986.986,0,0,1-.6.46,1.006,1.006,0,0,1-.774-.115A.984.984,0,0,1,18.479,20.552Z"></path><path d="M26.039,50.355h0l-1.851,0a1.074,1.074,0,0,1-.7-.288.974.974,0,0,1-.289-.7,2.989,2.989,0,0,0-2.983-2.982l-7.455,0c1.912-3.313,2.968-5.137,3.508-6.067l.951.546A1.491,1.491,0,0,0,19.4,39.189l-2.222-8.3a1.5,1.5,0,0,0-1.835-1.059l-8.3,2.222a1.491,1.491,0,0,0-.362,2.731l.945.548c-1.184,2.047-4.056,7.02-4.123,7.142l-.018.033,0,.006a3.9,3.9,0,0,0,.031,3.829l4.6,7.97a.731.731,0,0,0,.048.062,4.037,4.037,0,0,0,3.477,1.978h.013l14.379,0h0a2.994,2.994,0,0,0,2.984-3.013,2.984,2.984,0,0,0-2.984-2.987Zm-20.8-6.877.024-.043,0,0c.218-.385,4.331-7.5,4.6-7.961A1,1,0,0,0,9.5,34.1l-.749-.434,6.628-1.775,1.776,6.632-.752-.431a1,1,0,0,0-1.349.343c-.09.146-1.22,2.089-4.891,8.452L8.186,50.314l0,.005-.029.05-.6-1.043h0a1.887,1.887,0,0,1-.016-1.855l2.66-4.606a1,1,0,0,0-1.732-1l-2.61,4.52-.6-1.042A1.891,1.891,0,0,1,5.241,43.478Zm20.8,10.877h0l-14.382,0h-.008a2.058,2.058,0,0,1-1.823-1.108,1.933,1.933,0,0,1-.095-.231,1.6,1.6,0,0,1-.074-.228c-.01-.041-.01-.084-.016-.126a2.161,2.161,0,0,1,.276-1.342l1.691-2.928,8.609,0a.984.984,0,0,1,.983.983,2.984,2.984,0,0,0,2.984,2.982h0l1.851,0h0a.976.976,0,0,1,.7.289,1,1,0,0,1,.288.728A.985.985,0,0,1,26.039,54.355Z"></path><path d="M60.45,42.365,53.263,29.911a3,3,0,0,0-5.2,3l.928,1.6a.982.982,0,0,1-.358,1.344,2.987,2.987,0,0,0-1.092,4.074l3.726,6.458c-3.772,0-5.911,0-7.008,0l0-1.1a1.491,1.491,0,0,0-2.546-1.051l-6.075,6.074a1.5,1.5,0,0,0,0,2.118l6.072,6.074a1.487,1.487,0,0,0,1.053.437,1.506,1.506,0,0,0,.571-.113,1.487,1.487,0,0,0,.922-1.376l0-1.092c2.365,0,8.121,0,8.241,0a.452.452,0,0,0,.052,0,3.9,3.9,0,0,0,3.3-1.941l2.3-3.979,0,0v0l2.3-3.981,0-.005c.009-.015.008-.032.016-.047A4.041,4.041,0,0,0,60.45,42.365ZM49.638,37.591a2.986,2.986,0,0,0,1.089-4.077l-.928-1.6a.978.978,0,0,1-.1-.748,1,1,0,0,1,.487-.613.984.984,0,0,1,1.343.361l7.19,12.457a2.064,2.064,0,0,1-.043,2.138,1.883,1.883,0,0,1-.154.2,1.531,1.531,0,0,1-.162.18c-.029.027-.063.047-.093.072a2.159,2.159,0,0,1-1.311.435H53.579l-4.3-7.457A.986.986,0,0,1,49.638,37.591ZM52.51,54.359l-.056,0c-.475,0-8.665,0-9.192,0h0a1,1,0,0,0-1,1v.865l-4.851-4.852,4.856-4.854,0,.867a1,1,0,0,0,.97,1c.2.006,2.883.014,9.766.01h4.019l-.605,1.047a1.883,1.883,0,0,1-1.6.938H49.5a1,1,0,0,0,0,2h5.22l-.6,1.042A1.885,1.885,0,0,1,52.51,54.359Z"></path><path d="M41.019,34.9A1,1,0,0,0,39.571,34a11.129,11.129,0,0,1-4.552.894c-.181,0-.343.016-.511.026A10.463,10.463,0,0,0,32.29,30a5.1,5.1,0,0,1-1.332-2.948c0-.225.018-.432.032-.616s.029-.376.029-.534a1,1,0,0,0-1.316-.949c-3.286,1.092-6.684,5.486-6.684,10.949,0,2.775,1.158,6.392,6.633,7.933A8.408,8.408,0,0,0,34.019,44.9C39.556,44.9,41.019,38.356,41.019,34.9Zm-2.11,1.464c-.283,2.31-1.292,6.536-4.89,6.536a7.07,7.07,0,0,1-1.348-.091,13.153,13.153,0,0,0,3.055-2.2,1,1,0,0,0-1.414-1.414,12.183,12.183,0,0,1-3.354,2.238c0-.088.008-.179.014-.271,0-.042,0-.084.008-.127.011-.127.025-.258.042-.391l.005-.044c.02-.144.046-.292.077-.44.01-.05.023-.1.034-.15.023-.1.048-.2.076-.3.017-.061.037-.121.056-.182.029-.09.061-.179.095-.268.024-.063.048-.125.075-.187.039-.091.084-.18.13-.269.028-.054.053-.11.083-.163a3.928,3.928,0,0,1,.253-.385c.034-.044.073-.085.109-.128.068-.081.137-.162.213-.237.049-.048.1-.093.155-.138a2.921,2.921,0,0,1,.235-.187c.058-.041.118-.081.18-.119a2.992,2.992,0,0,1,.3-.159c.06-.029.118-.06.181-.086a3.537,3.537,0,0,1,.53-.17l.024-.008a5.143,5.143,0,0,1,1.189-.123A14.277,14.277,0,0,0,38.909,36.361ZM25.019,35.9a10.466,10.466,0,0,1,3.963-8.349,7.423,7.423,0,0,0,1.682,3.612,8.458,8.458,0,0,1,1.882,4.169c-.036.014-.063.036-.1.05a5.29,5.29,0,0,0-.723.374c-.065.04-.13.08-.193.123a5.014,5.014,0,0,0-.674.545c-.024.023-.043.049-.066.072a5.348,5.348,0,0,0-.493.586c-.043.059-.086.118-.127.179a6.03,6.03,0,0,0-.419.714c-.008.015-.013.031-.021.047a7.065,7.065,0,0,0-.3.73c-.024.07-.048.138-.07.208-.079.251-.15.5-.2.756l-.008.032c-.056.265-.1.528-.128.789-.009.071-.017.139-.024.209-.024.231-.041.458-.048.679,0,.021,0,.043-.005.063A5.624,5.624,0,0,1,25.019,35.9Z"></path></g></svg>
