<svg height='100px' width='100px'  fill="#49ac7f" xmlns:dc="http://purl.org/dc/elements/1.1/" xmlns:cc="http://creativecommons.org/ns#" xmlns:rdf="http://www.w3.org/1999/02/22-rdf-syntax-ns#" xmlns:svg="http://www.w3.org/2000/svg" xmlns="http://www.w3.org/2000/svg" xmlns:sodipodi="http://sodipodi.sourceforge.net/DTD/sodipodi-0.dtd" xmlns:inkscape="http://www.inkscape.org/namespaces/inkscape" viewBox="0 0 8.4666665 8.4666669" version="1.1" x="0px" y="0px"><g transform="translate(0,-288.53332)"><g transform="translate(79.149346,69.48968)"><path style="color:#000000;font-style:normal;font-variant:normal;font-weight:normal;font-stretch:normal;font-size:medium;line-height:normal;font-family:sans-serif;font-variant-ligatures:normal;font-variant-position:normal;font-variant-caps:normal;font-variant-numeric:normal;font-variant-alternates:normal;font-feature-settings:normal;text-indent:0;text-align:start;text-decoration:none;text-decoration-line:none;text-decoration-style:solid;text-decoration-color:#000000;letter-spacing:normal;word-spacing:normal;text-transform:none;writing-mode:lr-tb;direction:ltr;text-orientation:mixed;dominant-baseline:auto;baseline-shift:baseline;text-anchor:start;white-space:normal;shape-padding:0;clip-rule:nonzero;display:inline;overflow:visible;visibility:visible;opacity:1;isolation:auto;mix-blend-mode:normal;color-interpolation:sRGB;color-interpolation-filters:linearRGB;solid-color:#000000;solid-opacity:1;vector-effect:none;fill:#49ac7f;fill-opacity:1;fill-rule:nonzero;stroke:none;stroke-width:0.26458332px;stroke-linecap:round;stroke-linejoin:round;stroke-miterlimit:4;stroke-dasharray:none;stroke-dashoffset:0;stroke-opacity:1;color-rendering:auto;image-rendering:auto;shape-rendering:auto;text-rendering:auto;enable-background:accumulate" d="m -75.935661,220.92241 a 0.13230489,0.13230489 0 0 0 -0.130224,0.13436 v 0.12869 a 0.13230489,0.13230489 0 1 0 0.264583,0 v -0.12869 a 0.13230489,0.13230489 0 0 0 -0.134359,-0.13436 z"></path><path style="color:#000000;font-style:normal;font-variant:normal;font-weight:normal;font-stretch:normal;font-size:medium;line-height:normal;font-family:sans-serif;font-variant-ligatures:normal;font-variant-position:normal;font-variant-caps:normal;font-variant-numeric:normal;font-variant-alternates:normal;font-feature-settings:normal;text-indent:0;text-align:start;text-decoration:none;text-decoration-line:none;text-decoration-style:solid;text-decoration-color:#000000;letter-spacing:normal;word-spacing:normal;text-transform:none;writing-mode:lr-tb;direction:ltr;text-orientation:mixed;dominant-baseline:auto;baseline-shift:baseline;text-anchor:start;white-space:normal;shape-padding:0;clip-rule:nonzero;display:inline;overflow:visible;visibility:visible;opacity:1;isolation:auto;mix-blend-mode:normal;color-interpolation:sRGB;color-interpolation-filters:linearRGB;solid-color:#000000;solid-opacity:1;vector-effect:none;fill:#49ac7f;fill-opacity:1;fill-rule:nonzero;stroke:none;stroke-width:0.26458332px;stroke-linecap:round;stroke-linejoin:round;stroke-miterlimit:4;stroke-dasharray:none;stroke-dashoffset:0;stroke-opacity:1;color-rendering:auto;image-rendering:auto;shape-rendering:auto;text-rendering:auto;enable-background:accumulate" d="m -75.935661,221.58387 a 0.13230489,0.13230489 0 0 0 -0.130224,0.13436 v 0.12869 a 0.13230489,0.13230489 0 1 0 0.264583,0 v -0.12869 a 0.13230489,0.13230489 0 0 0 -0.134359,-0.13436 z"></path><path style="color:#000000;font-style:normal;font-variant:normal;font-weight:normal;font-stretch:normal;font-size:medium;line-height:normal;font-family:sans-serif;font-variant-ligatures:normal;font-variant-position:normal;font-variant-caps:normal;font-variant-numeric:normal;font-variant-alternates:normal;font-feature-settings:normal;text-indent:0;text-align:start;text-decoration:none;text-decoration-line:none;text-decoration-style:solid;text-decoration-color:#000000;letter-spacing:normal;word-spacing:normal;text-transform:none;writing-mode:lr-tb;direction:ltr;text-orientation:mixed;dominant-baseline:auto;baseline-shift:baseline;text-anchor:start;white-space:normal;shape-padding:0;clip-rule:nonzero;display:inline;overflow:visible;visibility:visible;opacity:1;isolation:auto;mix-blend-mode:normal;color-interpolation:sRGB;color-interpolation-filters:linearRGB;solid-color:#000000;solid-opacity:1;vector-effect:none;fill:#49ac7f;fill-opacity:1;fill-rule:nonzero;stroke:none;stroke-width:0.26458332px;stroke-linecap:round;stroke-linejoin:round;stroke-miterlimit:4;stroke-dasharray:none;stroke-dashoffset:0;stroke-opacity:1;color-rendering:auto;image-rendering:auto;shape-rendering:auto;text-rendering:auto;enable-background:accumulate" d="m -75.404237,221.4497 a 0.13230489,0.13230489 0 0 0 -0.134356,-0.13023 h -0.128693 a 0.13230489,0.13230489 0 1 0 0,0.26458 h 0.128693 a 0.13230489,0.13230489 0 0 0 0.134356,-0.13435 z"></path><path style="color:#000000;font-style:normal;font-variant:normal;font-weight:normal;font-stretch:normal;font-size:medium;line-height:normal;font-family:sans-serif;font-variant-ligatures:normal;font-variant-position:normal;font-variant-caps:normal;font-variant-numeric:normal;font-variant-alternates:normal;font-feature-settings:normal;text-indent:0;text-align:start;text-decoration:none;text-decoration-line:none;text-decoration-style:solid;text-decoration-color:#000000;letter-spacing:normal;word-spacing:normal;text-transform:none;writing-mode:lr-tb;direction:ltr;text-orientation:mixed;dominant-baseline:auto;baseline-shift:baseline;text-anchor:start;white-space:normal;shape-padding:0;clip-rule:nonzero;display:inline;overflow:visible;visibility:visible;opacity:1;isolation:auto;mix-blend-mode:normal;color-interpolation:sRGB;color-interpolation-filters:linearRGB;solid-color:#000000;solid-opacity:1;vector-effect:none;fill:#49ac7f;fill-opacity:1;fill-rule:nonzero;stroke:none;stroke-width:0.26458332px;stroke-linecap:round;stroke-linejoin:round;stroke-miterlimit:4;stroke-dasharray:none;stroke-dashoffset:0;stroke-opacity:1;color-rendering:auto;image-rendering:auto;shape-rendering:auto;text-rendering:auto;enable-background:accumulate" d="m -76.065696,221.4497 a 0.13230489,0.13230489 0 0 0 -0.134355,-0.13023 h -0.128693 a 0.13230489,0.13230489 0 1 0 0,0.26458 h 0.128693 a 0.13230489,0.13230489 0 0 0 0.134355,-0.13435 z"></path><path style="opacity:1;fill:#49ac7f;fill-opacity:1;stroke:none;stroke-width:0.26458332;stroke-linecap:round;stroke-linejoin:round;stroke-miterlimit:4;stroke-dasharray:none;stroke-opacity:1" d="m -72.188631,225.55185 a 0.13229166,0.13229166 0 0 1 -0.132292,0.13229 0.13229166,0.13229166 0 0 1 -0.132292,-0.13229 0.13229166,0.13229166 0 0 1 0.132292,-0.13229 0.13229166,0.13229166 0 0 1 0.132292,0.13229 z"></path><path d="m -71.597313,223.11747 0.576551,-0.0683 a 0.13628681,0.12843929 0 1 0 -0.03373,-0.25489 l -0.576863,0.0683 c -0.140869,0.0166 -0.283335,-0.0106 -0.406646,-0.0771 l -0.504717,-0.27256 a 0.13628681,0.12843929 0 0 0 -0.06777,-0.0168 h -0.601225 c -0.05852,0 -0.103596,-0.0421 -0.104316,-0.098 l -9.44e-4,-0.0618 c -6.87e-4,-0.0539 0.04228,-0.0948 0.0987,-0.0948 h 0.915735 a 0.13628681,0.12843929 0 1 0 0,-0.25666 h -0.915735 c -0.205325,0 -0.373531,0.16124 -0.371042,0.35468 l 6.24e-4,0.0618 c 0.0025,0.19321 0.171891,0.35143 0.376976,0.35143 h 0.564995 l 0.473171,0.25579 c 0.174518,0.0943 0.376725,0.13247 0.576239,0.1089 z" style="color:#000000;font-style:normal;font-variant:normal;font-weight:normal;font-stretch:normal;font-size:medium;line-height:normal;font-family:sans-serif;font-variant-ligatures:normal;font-variant-position:normal;font-variant-caps:normal;font-variant-numeric:normal;font-variant-alternates:normal;font-feature-settings:normal;text-indent:0;text-align:start;text-decoration:none;text-decoration-line:none;text-decoration-style:solid;text-decoration-color:#000000;letter-spacing:normal;word-spacing:normal;text-transform:none;writing-mode:lr-tb;direction:ltr;text-orientation:mixed;dominant-baseline:auto;baseline-shift:baseline;text-anchor:start;white-space:normal;shape-padding:0;clip-rule:nonzero;display:inline;overflow:visible;visibility:visible;opacity:1;isolation:auto;mix-blend-mode:normal;color-interpolation:sRGB;color-interpolation-filters:linearRGB;solid-color:#000000;solid-opacity:1;vector-effect:none;fill:#49ac7f;fill-opacity:1;fill-rule:evenodd;stroke:none;stroke-width:0.26458329px;stroke-linecap:round;stroke-linejoin:round;stroke-miterlimit:4;stroke-dasharray:none;stroke-dashoffset:0;stroke-opacity:1;color-rendering:auto;image-rendering:auto;shape-rendering:auto;text-rendering:auto;enable-background:accumulate"></path><path d="m -74.247698,222.65772 0.842026,-0.28552 a 0.13628681,0.12843929 0 1 0 -0.09213,-0.24165 l -0.842339,0.2855 a 0.13628681,0.12843929 0 0 0 -0.005,0.002 c -0.04883,0.0187 -0.10078,6e-5 -0.125554,-0.0474 -5.3e-5,-1.1e-4 -2.56e-4,10e-5 -3.2e-4,0 a 0.13628681,0.12843929 0 0 0 -6.24e-4,-0.002 c -0.02735,-0.0526 -0.004,-0.11346 0.04935,-0.13628 l 1.167156,-0.49831 c 0.282005,-0.12049 0.600095,-0.1286 0.925106,-0.0807 l 1.275533,0.18838 a 0.1364036,0.12854935 0 1 0 0.04216,-0.25401 l -1.275534,-0.18809 c -0.356254,-0.0525 -0.731973,-0.0482 -1.079706,0.10038 l -1.167156,0.49862 c -0.193253,0.0826 -0.275121,0.3036 -0.181773,0.483 a 0.13628681,0.12843929 0 0 0 6.24e-4,0.001 c 0.08514,0.16427 0.293632,0.2415 0.473484,0.17248 z" style="color:#000000;font-style:normal;font-variant:normal;font-weight:normal;font-stretch:normal;font-size:medium;line-height:normal;font-family:sans-serif;font-variant-ligatures:normal;font-variant-position:normal;font-variant-caps:normal;font-variant-numeric:normal;font-variant-alternates:normal;font-feature-settings:normal;text-indent:0;text-align:start;text-decoration:none;text-decoration-line:none;text-decoration-style:solid;text-decoration-color:#000000;letter-spacing:normal;word-spacing:normal;text-transform:none;writing-mode:lr-tb;direction:ltr;text-orientation:mixed;dominant-baseline:auto;baseline-shift:baseline;text-anchor:start;white-space:normal;shape-padding:0;clip-rule:nonzero;display:inline;overflow:visible;visibility:visible;opacity:1;isolation:auto;mix-blend-mode:normal;color-interpolation:sRGB;color-interpolation-filters:linearRGB;solid-color:#000000;solid-opacity:1;vector-effect:none;fill:#49ac7f;fill-opacity:1;fill-rule:evenodd;stroke:none;stroke-width:0.26458329px;stroke-linecap:round;stroke-linejoin:round;stroke-miterlimit:4;stroke-dasharray:none;stroke-dashoffset:0;stroke-opacity:1;color-rendering:auto;image-rendering:auto;shape-rendering:auto;text-rendering:auto;enable-background:accumulate"></path><path style="opacity:1;fill:#49ac7f;fill-opacity:1;stroke:none;stroke-width:0.26458332;stroke-linecap:round;stroke-linejoin:round;stroke-miterlimit:4;stroke-dasharray:none;stroke-opacity:1" d="m -75.760508,222.77374 a 0.13229166,0.13229166 0 0 1 -0.132291,0.13229 0.13229166,0.13229166 0 0 1 -0.132292,-0.13229 0.13229166,0.13229166 0 0 1 0.132292,-0.13229 0.13229166,0.13229166 0 0 1 0.132291,0.13229 z"></path><path style="display:inline;opacity:1;fill:#49ac7f;fill-opacity:1;stroke:none;stroke-width:0.26458332;stroke-linecap:round;stroke-linejoin:round;stroke-miterlimit:4;stroke-dasharray:none;stroke-opacity:1" d="m -74.992262,220.737 a 0.13229166,0.13229166 0 0 1 -0.132292,0.13229 0.13229166,0.13229166 0 0 1 -0.132291,-0.13229 0.13229166,0.13229166 0 0 1 0.132291,-0.13229 0.13229166,0.13229166 0 0 1 0.132292,0.13229 z"></path><path style="display:inline;opacity:1;fill:#49ac7f;fill-opacity:1;stroke:none;stroke-width:0.26458332;stroke-linecap:round;stroke-linejoin:round;stroke-miterlimit:4;stroke-dasharray:none;stroke-opacity:1" d="m -76.847998,222.0599 a 0.13229166,0.13229166 0 0 1 -0.132292,0.1323 0.13229166,0.13229166 0 0 1 -0.132291,-0.1323 0.13229166,0.13229166 0 0 1 0.132291,-0.13229 0.13229166,0.13229166 0 0 1 0.132292,0.13229 z"></path><path style="color:#000000;font-style:normal;font-variant:normal;font-weight:normal;font-stretch:normal;font-size:medium;line-height:normal;font-family:sans-serif;font-variant-ligatures:normal;font-variant-position:normal;font-variant-caps:normal;font-variant-numeric:normal;font-variant-alternates:normal;font-feature-settings:normal;text-indent:0;text-align:start;text-decoration:none;text-decoration-line:none;text-decoration-style:solid;text-decoration-color:#000000;letter-spacing:normal;word-spacing:normal;text-transform:none;writing-mode:lr-tb;direction:ltr;text-orientation:mixed;dominant-baseline:auto;baseline-shift:baseline;text-anchor:start;white-space:normal;shape-padding:0;clip-rule:nonzero;display:inline;overflow:visible;visibility:visible;opacity:1;isolation:auto;mix-blend-mode:normal;color-interpolation:sRGB;color-interpolation-filters:linearRGB;solid-color:#000000;solid-opacity:1;vector-effect:none;fill:#49ac7f;fill-opacity:1;fill-rule:nonzero;stroke:none;stroke-width:0.26458332px;stroke-linecap:round;stroke-linejoin:round;stroke-miterlimit:4;stroke-dasharray:none;stroke-dashoffset:0;stroke-opacity:1;color-rendering:auto;image-rendering:auto;shape-rendering:auto;text-rendering:auto;enable-background:accumulate" d="m -77.920036,221.84845 a 0.13230489,0.13230489 0 0 0 -0.130224,0.13436 v 0.12869 a 0.13230489,0.13230489 0 1 0 0.264583,0 v -0.12869 a 0.13230489,0.13230489 0 0 0 -0.134359,-0.13436 z"></path><path style="color:#000000;font-style:normal;font-variant:normal;font-weight:normal;font-stretch:normal;font-size:medium;line-height:normal;font-family:sans-serif;font-variant-ligatures:normal;font-variant-position:normal;font-variant-caps:normal;font-variant-numeric:normal;font-variant-alternates:normal;font-feature-settings:normal;text-indent:0;text-align:start;text-decoration:none;text-decoration-line:none;text-decoration-style:solid;text-decoration-color:#000000;letter-spacing:normal;word-spacing:normal;text-transform:none;writing-mode:lr-tb;direction:ltr;text-orientation:mixed;dominant-baseline:auto;baseline-shift:baseline;text-anchor:start;white-space:normal;shape-padding:0;clip-rule:nonzero;display:inline;overflow:visible;visibility:visible;opacity:1;isolation:auto;mix-blend-mode:normal;color-interpolation:sRGB;color-interpolation-filters:linearRGB;solid-color:#000000;solid-opacity:1;vector-effect:none;fill:#49ac7f;fill-opacity:1;fill-rule:nonzero;stroke:none;stroke-width:0.26458332px;stroke-linecap:round;stroke-linejoin:round;stroke-miterlimit:4;stroke-dasharray:none;stroke-dashoffset:0;stroke-opacity:1;color-rendering:auto;image-rendering:auto;shape-rendering:auto;text-rendering:auto;enable-background:accumulate" d="m -77.920036,222.50991 a 0.13230489,0.13230489 0 0 0 -0.130224,0.13436 v 0.12869 a 0.13230489,0.13230489 0 1 0 0.264583,0 v -0.12869 a 0.13230489,0.13230489 0 0 0 -0.134359,-0.13436 z"></path><path style="color:#000000;font-style:normal;font-variant:normal;font-weight:normal;font-stretch:normal;font-size:medium;line-height:normal;font-family:sans-serif;font-variant-ligatures:normal;font-variant-position:normal;font-variant-caps:normal;font-variant-numeric:normal;font-variant-alternates:normal;font-feature-settings:normal;text-indent:0;text-align:start;text-decoration:none;text-decoration-line:none;text-decoration-style:solid;text-decoration-color:#000000;letter-spacing:normal;word-spacing:normal;text-transform:none;writing-mode:lr-tb;direction:ltr;text-orientation:mixed;dominant-baseline:auto;baseline-shift:baseline;text-anchor:start;white-space:normal;shape-padding:0;clip-rule:nonzero;display:inline;overflow:visible;visibility:visible;opacity:1;isolation:auto;mix-blend-mode:normal;color-interpolation:sRGB;color-interpolation-filters:linearRGB;solid-color:#000000;solid-opacity:1;vector-effect:none;fill:#49ac7f;fill-opacity:1;fill-rule:nonzero;stroke:none;stroke-width:0.26458332px;stroke-linecap:round;stroke-linejoin:round;stroke-miterlimit:4;stroke-dasharray:none;stroke-dashoffset:0;stroke-opacity:1;color-rendering:auto;image-rendering:auto;shape-rendering:auto;text-rendering:auto;enable-background:accumulate" d="m -77.388617,222.37574 a 0.13230489,0.13230489 0 0 0 -0.134356,-0.13023 h -0.128693 a 0.13230489,0.13230489 0 1 0 0,0.26458 h 0.128693 a 0.13230489,0.13230489 0 0 0 0.134356,-0.13435 z"></path><path style="color:#000000;font-style:normal;font-variant:normal;font-weight:normal;font-stretch:normal;font-size:medium;line-height:normal;font-family:sans-serif;font-variant-ligatures:normal;font-variant-position:normal;font-variant-caps:normal;font-variant-numeric:normal;font-variant-alternates:normal;font-feature-settings:normal;text-indent:0;text-align:start;text-decoration:none;text-decoration-line:none;text-decoration-style:solid;text-decoration-color:#000000;letter-spacing:normal;word-spacing:normal;text-transform:none;writing-mode:lr-tb;direction:ltr;text-orientation:mixed;dominant-baseline:auto;baseline-shift:baseline;text-anchor:start;white-space:normal;shape-padding:0;clip-rule:nonzero;display:inline;overflow:visible;visibility:visible;opacity:1;isolation:auto;mix-blend-mode:normal;color-interpolation:sRGB;color-interpolation-filters:linearRGB;solid-color:#000000;solid-opacity:1;vector-effect:none;fill:#49ac7f;fill-opacity:1;fill-rule:nonzero;stroke:none;stroke-width:0.26458332px;stroke-linecap:round;stroke-linejoin:round;stroke-miterlimit:4;stroke-dasharray:none;stroke-dashoffset:0;stroke-opacity:1;color-rendering:auto;image-rendering:auto;shape-rendering:auto;text-rendering:auto;enable-background:accumulate" d="m -78.050076,222.37574 a 0.13230489,0.13230489 0 0 0 -0.134355,-0.13023 h -0.128693 a 0.13230489,0.13230489 0 1 0 0,0.26458 h 0.128693 a 0.13230489,0.13230489 0 0 0 0.134355,-0.13435 z"></path><path style="display:inline;opacity:1;fill:#49ac7f;fill-opacity:1;stroke:none;stroke-width:0.26458332;stroke-linecap:round;stroke-linejoin:round;stroke-miterlimit:4;stroke-dasharray:none;stroke-opacity:1" d="m -77.522921,221.18719 a 0.13229166,0.13229166 0 0 1 -0.132291,0.1323 0.13229166,0.13229166 0 0 1 -0.132292,-0.1323 0.13229166,0.13229166 0 0 1 0.132292,-0.13229 0.13229166,0.13229166 0 0 1 0.132291,0.13229 z"></path><path style="color:#000000;font-style:normal;font-variant:normal;font-weight:normal;font-stretch:normal;font-size:medium;line-height:normal;font-family:sans-serif;font-variant-ligatures:normal;font-variant-position:normal;font-variant-caps:normal;font-variant-numeric:normal;font-variant-alternates:normal;font-feature-settings:normal;text-indent:0;text-align:start;text-decoration:none;text-decoration-line:none;text-decoration-style:solid;text-decoration-color:#000000;letter-spacing:normal;word-spacing:normal;text-transform:none;writing-mode:lr-tb;direction:ltr;text-orientation:mixed;dominant-baseline:auto;baseline-shift:baseline;text-anchor:start;white-space:normal;shape-padding:0;clip-rule:nonzero;display:inline;overflow:visible;visibility:visible;opacity:1;isolation:auto;mix-blend-mode:normal;color-interpolation:sRGB;color-interpolation-filters:linearRGB;solid-color:#000000;solid-opacity:1;vector-effect:none;fill:#49ac7f;fill-opacity:1;fill-rule:evenodd;stroke:none;stroke-width:0.26458332px;stroke-linecap:butt;stroke-linejoin:round;stroke-miterlimit:4;stroke-dasharray:none;stroke-dashoffset:0;stroke-opacity:1;color-rendering:auto;image-rendering:auto;shape-rendering:auto;text-rendering:auto;enable-background:accumulate" d="m -73.130343,223.35697 c -0.09868,-0.0383 -0.211352,-0.0398 -0.315744,0.006 l -1.465027,0.63873 0.105421,0.24236 1.465543,-0.63873 c 0.07585,-0.033 0.166296,0.003 0.205674,0.0822 0.02705,0.0394 0.01643,0.10517 0.0083,0.13176 l 0.249079,0.0889 c 0.03795,-0.10652 0.0339,-0.22929 -0.02016,-0.33848 -8.2e-5,-1.6e-4 8.2e-5,0 0,0 -0.03554,-0.0588 -0.09124,-0.15505 -0.233066,-0.21254 z"></path><path style="color:#000000;font-style:normal;font-variant:normal;font-weight:normal;font-stretch:normal;font-size:medium;line-height:normal;font-family:sans-serif;font-variant-ligatures:normal;font-variant-position:normal;font-variant-caps:normal;font-variant-numeric:normal;font-variant-alternates:normal;font-feature-settings:normal;text-indent:0;text-align:start;text-decoration:none;text-decoration-line:none;text-decoration-style:solid;text-decoration-color:#000000;letter-spacing:normal;word-spacing:normal;text-transform:none;writing-mode:lr-tb;direction:ltr;text-orientation:mixed;dominant-baseline:auto;baseline-shift:baseline;text-anchor:start;white-space:normal;shape-padding:0;clip-rule:nonzero;display:inline;overflow:visible;visibility:visible;opacity:1;isolation:auto;mix-blend-mode:normal;color-interpolation:sRGB;color-interpolation-filters:linearRGB;solid-color:#000000;solid-opacity:1;vector-effect:none;fill:#49ac7f;fill-opacity:1;fill-rule:evenodd;stroke:none;stroke-width:0.26458332px;stroke-linecap:round;stroke-linejoin:round;stroke-miterlimit:4;stroke-dasharray:none;stroke-dashoffset:0;stroke-opacity:1;color-rendering:auto;image-rendering:auto;shape-rendering:auto;text-rendering:auto;enable-background:accumulate" d="m -72.1087,223.89907 c -0.33579,0.12759 -1.743046,0.62786 -1.743046,0.62786 a 0.13239563,0.13239563 0 1 0 0.08837,0.24961 c 0,0 1.398058,-0.49692 1.748216,-0.62995 0.07374,-0.028 0.18778,0.0284 0.210838,0.0775 0.02522,0.0536 0.01947,0.0978 -5.29e-4,0.14211 -0.02,0.0443 -0.06157,0.0814 -0.0801,0.0899 -0.679722,0.31424 -2.048452,0.93123 -2.048452,0.93123 -0.378793,0.16959 -0.947711,0.32194 -1.481563,0.29403 -0.560623,-0.0293 -1.120542,-0.4599 -1.775087,-0.62839 -0.538057,-0.13851 -1.593183,-0.26768 -1.593183,-0.26768 a 0.13230489,0.13230489 0 1 0 -0.03256,0.26252 c 0,0 1.065345,0.13425 1.559594,0.26149 0.577691,0.1487 1.150324,0.60074 1.827797,0.63614 0.592476,0.0309 1.189668,-0.13147 1.603518,-0.31679 0,0 1.368285,-0.61661 2.05104,-0.93226 0.09145,-0.0423 0.164203,-0.11906 0.210322,-0.22116 0.04612,-0.10211 0.0582,-0.23675 -0.0016,-0.3638 -0.09222,-0.19625 -0.327237,-0.29464 -0.543637,-0.21239 z"></path><path style="color:#000000;font-style:normal;font-variant:normal;font-weight:normal;font-stretch:normal;font-size:medium;line-height:normal;font-family:sans-serif;font-variant-ligatures:normal;font-variant-position:normal;font-variant-caps:normal;font-variant-numeric:normal;font-variant-alternates:normal;font-feature-settings:normal;text-indent:0;text-align:start;text-decoration:none;text-decoration-line:none;text-decoration-style:solid;text-decoration-color:#000000;letter-spacing:normal;word-spacing:normal;text-transform:none;writing-mode:lr-tb;direction:ltr;text-orientation:mixed;dominant-baseline:auto;baseline-shift:baseline;text-anchor:start;white-space:normal;shape-padding:0;clip-rule:nonzero;display:inline;overflow:visible;visibility:visible;opacity:1;isolation:auto;mix-blend-mode:normal;color-interpolation:sRGB;color-interpolation-filters:linearRGB;solid-color:#000000;solid-opacity:1;vector-effect:none;fill:#49ac7f;fill-opacity:1;fill-rule:evenodd;stroke:none;stroke-width:0.26458332px;stroke-linecap:butt;stroke-linejoin:round;stroke-miterlimit:4;stroke-dasharray:none;stroke-dashoffset:0;stroke-opacity:1;color-rendering:auto;image-rendering:auto;shape-rendering:auto;text-rendering:auto;enable-background:accumulate" d="m -72.473018,223.62674 c -0.09795,-0.0376 -0.209748,-0.0397 -0.313161,0.003 l -1.595768,0.63614 0.09767,0.24548 1.596284,-0.63563 c 0.08156,-0.0325 0.169992,0 0.209288,0.0806 1.78e-4,0 2.65e-4,0 5.29e-4,0 0.02119,0.0434 0.0231,0.0897 0.0083,0.13126 l 0.249079,0.0889 c 0.038,-0.10665 0.03411,-0.22966 -0.02016,-0.33898 -0.02609,-0.0458 -0.08381,-0.15635 -0.232016,-0.2104 z"></path><path style="color:#000000;font-style:normal;font-variant:normal;font-weight:normal;font-stretch:normal;font-size:medium;line-height:normal;font-family:sans-serif;font-variant-ligatures:normal;font-variant-position:normal;font-variant-caps:normal;font-variant-numeric:normal;font-variant-alternates:normal;font-feature-settings:normal;text-indent:0;text-align:start;text-decoration:none;text-decoration-line:none;text-decoration-style:solid;text-decoration-color:#000000;letter-spacing:normal;word-spacing:normal;text-transform:none;writing-mode:lr-tb;direction:ltr;text-orientation:mixed;dominant-baseline:auto;baseline-shift:baseline;text-anchor:start;white-space:normal;shape-padding:0;clip-rule:nonzero;display:inline;overflow:visible;visibility:visible;opacity:1;isolation:auto;mix-blend-mode:normal;color-interpolation:sRGB;color-interpolation-filters:linearRGB;solid-color:#000000;solid-opacity:1;vector-effect:none;fill:#49ac7f;fill-opacity:1;fill-rule:evenodd;stroke:none;stroke-width:0.26458332px;stroke-linecap:butt;stroke-linejoin:round;stroke-miterlimit:4;stroke-dasharray:none;stroke-dashoffset:0;stroke-opacity:1;color-rendering:auto;image-rendering:auto;shape-rendering:auto;text-rendering:auto;enable-background:accumulate" d="m -73.939595,223.20092 c -0.09997,-0.0357 -0.211595,-0.0401 -0.316259,0.007 l -1.207162,0.53848 0.133324,0.23254 1.182356,-0.52969 c 0.07406,-0.0332 0.16473,0.003 0.204124,0.0827 5.29e-4,0 0.0011,0.003 0.0016,0.003 0.01006,0.0209 0.01707,0.0641 0.01707,0.0641 l 0.27336,-0.0124 c 0,0 -0.02714,-0.11737 -0.05426,-0.17208 -0.0459,-0.10777 -0.174638,-0.19217 -0.234135,-0.21334 z"></path><path style="color:#000000;font-style:normal;font-variant:normal;font-weight:normal;font-stretch:normal;font-size:medium;line-height:normal;font-family:sans-serif;font-variant-ligatures:normal;font-variant-position:normal;font-variant-caps:normal;font-variant-numeric:normal;font-variant-alternates:normal;font-feature-settings:normal;text-indent:0;text-align:start;text-decoration:none;text-decoration-line:none;text-decoration-style:solid;text-decoration-color:#000000;letter-spacing:normal;word-spacing:normal;text-transform:none;writing-mode:lr-tb;direction:ltr;text-orientation:mixed;dominant-baseline:auto;baseline-shift:baseline;text-anchor:start;white-space:normal;shape-padding:0;clip-rule:nonzero;display:inline;overflow:visible;visibility:visible;opacity:1;isolation:auto;mix-blend-mode:normal;color-interpolation:sRGB;color-interpolation-filters:linearRGB;solid-color:#000000;solid-opacity:1;vector-effect:none;fill:#49ac7f;fill-opacity:1;fill-rule:evenodd;stroke:none;stroke-width:0.26458332px;stroke-linecap:round;stroke-linejoin:round;stroke-miterlimit:4;stroke-dasharray:none;stroke-dashoffset:0;stroke-opacity:1;color-rendering:auto;image-rendering:auto;shape-rendering:auto;text-rendering:auto;enable-background:accumulate" d="m -76.781281,223.23865 a 0.13230489,0.13230489 0 0 0 -0.0057,0 l -1.236099,0.22116 h -0.776697 a 0.13230489,0.13230489 0 1 0 0,0.26459 h 0.788064 a 0.13230489,0.13230489 0 0 0 0.02379,-0.003 l 1.243851,-0.2222 c 0.182243,-0.0243 0.368959,0.0143 0.530717,0.10748 l 0.632003,0.3638 a 0.13230489,0.13230489 0 0 0 0.01913,0.009 l 1.051097,0.39687 c 0.08937,0.0337 0.122589,0.0681 0.144179,0.10698 0.02027,0.0365 0.02868,0.0904 0.031,0.15864 -0.0059,0.0509 -0.02117,0.0814 -0.05323,0.10438 -0.03308,0.0236 -0.09444,0.0428 -0.193786,0.0357 l -1.434021,-0.26252 a 0.13230489,0.13230489 0 1 0 -0.04754,0.25993 l 1.444874,0.26511 a 0.13230489,0.13230489 0 0 0 0.01344,0.003 c 0.14496,0.0114 0.273135,-0.0146 0.371036,-0.0848 0.0979,-0.0701 0.154638,-0.1829 0.165364,-0.29972 a 0.13230489,0.13230489 0 0 0 5.29e-4,-0.0146 c -0.0019,-0.0938 -0.01246,-0.19592 -0.06614,-0.2925 -0.05368,-0.0965 -0.150326,-0.17602 -0.282155,-0.22582 l -1.041281,-0.39325 -0.622699,-0.35864 c -0.210862,-0.12139 -0.456573,-0.17351 -0.699699,-0.14055 z"></path></g></g></svg>
